HIERARCHY
ROOT Hips
{
	OFFSET	0.00	0.00	0.00
	CHANNELS 6 Xposition Yposition Zposition Zrotation Xrotation Yrotation
	JOINT LeftUpLeg
	{
		OFFSET	 0.126116	-0.014019	-0.065224
		CHANNELS 3 Zrotation Xrotation Yrotation
		JOINT LeftLeg
		{
			OFFSET	 0.000000	 0.000000	 0.569914
			CHANNELS 3 Zrotation Xrotation Yrotation
			JOINT LeftFoot
			{
				OFFSET	 0.000000	 0.000000	 0.544423
				CHANNELS 3 Zrotation Xrotation Yrotation
				JOINT LeftToeBase
				{
					OFFSET	 0.000000	 0.000000	 0.207117
					CHANNELS 3 Zrotation Xrotation Yrotation
					End Site
					{
						OFFSET	 0.000000	 0.000000	 0.207117
					}
				}
			}
		}
	}
	JOINT RightUpLeg
	{
		OFFSET	-0.124023	-0.008373	-0.065224
		CHANNELS 3 Zrotation Xrotation Yrotation
		JOINT RightLeg
		{
			OFFSET	 0.000000	 0.000000	 0.570047
			CHANNELS 3 Zrotation Xrotation Yrotation
			JOINT RightFoot
			{
				OFFSET	 0.000000	 0.000000	 0.544354
				CHANNELS 3 Zrotation Xrotation Yrotation
				JOINT RightToeBase
				{
					OFFSET	 0.000000	 0.000000	 0.207540
					CHANNELS 3 Zrotation Xrotation Yrotation
					End Site
					{
						OFFSET	 0.000000	 0.000000	 0.207540
					}
				}
			}
		}
	}
	JOINT Spine
	{
		OFFSET	 0.000184	-0.007763	 0.117403
		CHANNELS 3 Zrotation Xrotation Yrotation
		JOINT Spine1
		{
			OFFSET	 0.000000	 0.000000	 0.137269
			CHANNELS 3 Zrotation Xrotation Yrotation
			JOINT Spine2
			{
				OFFSET	 0.000000	 0.000000	 0.156879
				CHANNELS 3 Zrotation Xrotation Yrotation
				JOINT LeftShoulder
				{
					OFFSET	 0.080501	-0.002496	 0.160144
					CHANNELS 3 Zrotation Xrotation Yrotation
					JOINT LeftArm
					{
						OFFSET	 0.000000	 0.000000	 0.164363
						CHANNELS 3 Zrotation Xrotation Yrotation
						JOINT LeftForeArm
						{
							OFFSET	 0.000000	 0.000000	 0.364576
							CHANNELS 3 Zrotation Xrotation Yrotation
							JOINT LeftHand
							{
								OFFSET	 0.000000	 0.000000	 0.360812
								CHANNELS 3 Zrotation Xrotation Yrotation
								JOINT LeftHandIndex1
								{
									OFFSET	 0.000000	 0.000000	 0.086006
									CHANNELS 3 Zrotation Xrotation Yrotation
									JOINT LeftHandIndex2
									{
										OFFSET	 0.000000	 0.000000	 0.047236
										CHANNELS 3 Zrotation Xrotation Yrotation
										JOINT LeftHandIndex3
										{
											OFFSET	-0.004284	-0.000551	 0.038166
											CHANNELS 3 Zrotation Xrotation Yrotation
											End Site
											{
												OFFSET	-0.004284	-0.000551	 0.038166
											}
										}
									}
								}
							}
						}
					}
				}
				JOINT Neck
				{
					OFFSET	 0.000000	 0.000000	 0.176489
					CHANNELS 3 Zrotation Xrotation Yrotation
					JOINT Head
					{
						OFFSET	 0.000000	-0.001747	 0.077940
						CHANNELS 3 Zrotation Xrotation Yrotation
						End Site
						{
							OFFSET	 0.000000	-0.001747	 0.077940
						}
					}
				}
				JOINT RightShoulder
				{
					OFFSET	-0.080363	 0.000306	 0.159706
					CHANNELS 3 Zrotation Xrotation Yrotation
					JOINT RightArm
					{
						OFFSET	 0.000000	 0.000000	 0.164196
						CHANNELS 3 Zrotation Xrotation Yrotation
						JOINT RightForeArm
						{
							OFFSET	 0.000000	 0.000000	 0.365611
							CHANNELS 3 Zrotation Xrotation Yrotation
							JOINT RightHand
							{
								OFFSET	 0.000000	 0.000000	 0.360648
								CHANNELS 3 Zrotation Xrotation Yrotation
								JOINT RightHandIndex1
								{
									OFFSET	 0.000000	 0.000000	 0.069977
									CHANNELS 3 Zrotation Xrotation Yrotation
									JOINT RightHandIndex2
									{
										OFFSET	 0.000000	 0.000000	 0.052305
										CHANNELS 3 Zrotation Xrotation Yrotation
										JOINT RightHandIndex3
										{
											OFFSET	 0.009002	-0.000782	 0.042196
											CHANNELS 3 Zrotation Xrotation Yrotation
											End Site
											{
												OFFSET	 0.009002	-0.000782	 0.042196
											}
										}
									}
								}
							}
						}
					}
				}
			}
		}
	}
}
MOTION
Frames:    8
Frame Time: 0.03333334
-0.000457	 0.014367	 1.219642	 0.003899	 0.008755	-0.052301	-6.559622	-13.525680	 179.616100	 0.724616	-36.820840	-2.468450	-26.328090	 83.724080	 20.499280	-2.385833	 28.452760	 0.000004	 6.433669	-13.443280	-179.510300	-0.720902	-36.898370	 2.429896	 26.211160	 83.965870	-20.505250	 2.384658	 28.388730	 0.000004	 1.273237	 2.781415	-0.001469	 0.658954	 3.448335	 0.334820	-1.981838	-4.385120	-0.461560	-91.776210	 78.527470	-180.000000	 59.229230	 41.417520	-45.776660	-7.802667	 4.082783	-10.258350	-28.452200	 4.046720	-4.259511	-2.635965	 4.993658	 6.788941	-5.165319	 0.784187	 3.516649	-5.225038	 0.466231	 0.424329	-0.000002	-3.783157	-0.089647	-1.920016	 5.157725	 0.086472	 89.782170	 78.203900	 179.999900	 5.684102	 13.352430	 95.219650	-34.122390	-2.517974	 7.501143	 3.908604	 3.531790	-6.120234	 6.112037	 4.509576	-0.364401	 4.968462	 1.518543	-9.347576	 5.168945	 0.703820	 2.021906
-0.000465	 0.013544	 1.219915	 0.003897	 0.008738	-0.052143	-6.558501	-13.470850	 179.614000	 0.729602	-36.728060	-2.460123	-26.139260	 83.692050	 20.308450	-2.385833	 28.452760	 0.000004	 6.430045	-13.347310	-179.511800	-0.726641	-36.790020	 2.420329	 26.084660	 83.958690	-20.375070	 2.384658	 28.388730	 0.000004	 1.270280	 2.784203	-0.001364	 0.657365	 3.438718	 0.334228	-1.977104	-4.372929	-0.460211	-91.776170	 78.527420	 180.000000	 59.236600	 41.392620	-45.778230	-7.802704	 4.083301	-10.259660	-28.450050	 4.047004	-4.259162	-2.635965	 4.993658	 6.788941	-5.165319	 0.784187	 3.516649	-5.225038	 0.466231	 0.424329	-0.000002	-3.783157	-0.089647	-1.915598	 5.163695	 0.086372	 89.782050	 78.203900	-180.000000	 5.706702	 13.512640	 95.234860	-34.237850	-2.541150	 7.519330	 3.920478	 3.439403	-6.169126	 6.112037	 4.509576	-0.364401	 4.968462	 1.518543	-9.347576	 5.168945	 0.703820	 2.021906
-0.000475	 0.012814	 1.220160	 0.003901	 0.008729	-0.051976	-6.557518	-13.421580	 179.612000	 0.734075	-36.644440	-2.452636	-25.970260	 83.662930	 20.137650	-2.385833	 28.452760	 0.000004	 6.426823	-13.261520	-179.513100	-0.731778	-36.692400	 2.411740	 25.968980	 83.951530	-20.256120	 2.384658	 28.388730	 0.000004	 1.267550	 2.786673	-0.001274	 0.655905	 3.430172	 0.333599	-1.972731	-4.362125	-0.458946	-91.776200	 78.527490	-180.000000	 59.264370	 41.362060	-45.800920	-7.802667	 4.083366	-10.259840	-28.453080	 4.046619	-4.259682	-2.635965	 4.993658	 6.788941	-5.165319	 0.784187	 3.516649	-5.225038	 0.466231	 0.424329	-0.000002	-3.783157	-0.089647	-1.911548	 5.168949	 0.086277	 89.782130	 78.203890	 180.000000	 5.733871	 13.681590	 95.253880	-34.349750	-2.563402	 7.536039	 3.945169	 3.357941	-6.213839	 6.112037	 4.509576	-0.364401	 4.968462	 1.518543	-9.347576	 5.168945	 0.703820	 2.021906
-0.000485	 0.012088	 1.220397	 0.003903	 0.008713	-0.051820	-6.556550	-13.373570	 179.610200	 0.738397	-36.563270	-2.445384	-25.808240	 83.634740	 19.973880	-2.385833	 28.452760	 0.000004	 6.423658	-13.177220	-179.514400	-0.736774	-36.597110	 2.403369	 25.857940	 83.945010	-20.141860	 2.384658	 28.388730	 0.000004	 1.264756	 2.789109	-0.001172	 0.654412	 3.421744	 0.332947	-1.968271	-4.351451	-0.457660	-91.776230	 78.527450	-180.000000	 59.315670	 41.328780	-45.850630	-7.802617	 4.083236	-10.259560	-28.460980	 4.045551	-4.260958	-2.635965	 4.993658	 6.788941	-5.165319	 0.784187	 3.516649	-5.225038	 0.466231	 0.424329	-0.000002	-3.783157	-0.089647	-1.907393	 5.174194	 0.086177	 89.782190	 78.203870	 179.999900	 5.749362	 13.876120	 95.267820	-34.468230	-2.588939	 7.559259	 3.985285	 3.303133	-6.254207	 6.112037	 4.509576	-0.364401	 4.968462	 1.518543	-9.347576	 5.168945	 0.703820	 2.021906
-0.000490	 0.011337	 1.220628	 0.003909	 0.008700	-0.051650	-6.555577	-13.326010	 179.608400	 0.742623	-36.483590	-2.438282	-25.651840	 83.607480	 19.815750	-2.385833	 28.452760	 0.000004	 6.420416	-13.092360	-179.515900	-0.741691	-36.502740	 2.395110	 25.752530	 83.939900	-20.033220	 2.384658	 28.388730	 0.000004	 1.261785	 2.791605	-0.001062	 0.652828	 3.413107	 0.332301	-1.963532	-4.340531	-0.456328	-91.776210	 78.527490	-180.000000	 59.396220	 41.299670	-45.937170	-7.802473	 4.084207	-10.262040	-28.474280	 4.043757	-4.263088	-2.635965	 4.993658	 6.788941	-5.165319	 0.784187	 3.516649	-5.225038	 0.466231	 0.424329	-0.000002	-3.783157	-0.089647	-1.903001	 5.179555	 0.086068	 89.782140	 78.203850	 180.000000	 5.721125	 14.058230	 95.252330	-34.585770	-2.622749	 7.606031	 3.503243	 3.467127	-6.273534	 6.112037	 4.509576	-0.364401	 4.968462	 1.518543	-9.347576	 5.168945	 0.703820	 2.021906
-0.000481	 0.010605	 1.220811	 0.003905	 0.008687	-0.051488	-6.554696	-13.286390	 179.607100	 0.745997	-36.419840	-2.432606	-25.532110	 83.587140	 19.694560	-2.385833	 28.452760	 0.000004	 6.417407	-13.016750	-179.517700	-0.745750	-36.424620	 2.388281	 25.682070	 83.940740	-19.959850	 2.384658	 28.388730	 0.000004	 1.258841	 2.793997	-0.000947	 0.651261	 3.404851	 0.331660	-1.958849	-4.330080	-0.455029	-91.776120	 78.527450	 179.999900	 59.506160	 41.284540	-46.066460	-7.802384	 4.085751	-10.265910	-28.492320	 4.041342	-4.266028	-2.635965	 4.993658	 6.788941	-5.165319	 0.784187	 3.516649	-5.225038	 0.466231	 0.424329	-0.000002	-3.783157	-0.089647	-1.898622	 5.184675	 0.085955	 89.782150	 78.203900	 180.000000	 5.613842	 14.433410	 95.337940	-34.483360	-2.549313	 7.438657	 2.774858	 3.639907	-6.259041	 6.112037	 4.509576	-0.364401	 4.968462	 1.518543	-9.347576	 5.168945	 0.703820	 2.021906
-0.000456	 0.009878	 1.220888	 0.003910	 0.008676	-0.051327	-6.554010	-13.263570	 179.607000	 0.747523	-36.390900	-2.430033	-25.491840	 83.582500	 19.653390	-2.385833	 28.452760	 0.000004	 6.414649	-12.959080	-179.520600	-0.747974	-36.381650	 2.384533	 25.693170	 83.956450	-19.968650	 2.384658	 28.388730	 0.000004	 1.255906	 2.796304	-0.000829	 0.649702	 3.396873	 0.331025	-1.954183	-4.319992	-0.453732	-91.776210	 78.527470	-180.000000	 59.650580	 41.289170	-46.250820	-7.802355	 4.085242	-10.264660	-28.515320	 4.038230	-4.269703	-2.635965	 4.993658	 6.788941	-5.165319	 0.784187	 3.516649	-5.225038	 0.466231	 0.424329	-0.000002	-3.783157	-0.089647	-1.894278	 5.189663	 0.085841	 89.782140	 78.203900	 180.000000	 5.484097	 15.072030	 95.806840	-34.118950	-2.204632	 6.578155	 2.125368	 3.694376	-6.220694	 6.112037	 4.509576	-0.364401	 4.968462	 1.518543	-9.347576	 5.168945	 0.703820	 2.021906
-0.000422	 0.009008	 1.221012	 0.003907	 0.008658	-0.051152	-6.553119	-13.231240	 179.606600	 0.749907	-36.345650	-2.426016	-25.419340	 83.572060	 19.579650	-2.385833	 28.452760	 0.000004	 6.411303	-12.884880	-179.523600	-0.751196	-36.319280	 2.379100	 25.679620	 83.970290	-19.952190	 2.384658	 28.388730	 0.000004	 1.252287	 2.799057	-0.000667	 0.647783	 3.387355	 0.330216	-1.948434	-4.307954	-0.452152	-91.776210	 78.527470	-180.000000	 59.876000	 41.323780	-46.553350	-7.802632	 4.083564	-10.260350	-28.549870	 4.033649	-4.275363	-2.635965	 4.993658	 6.788941	-5.165319	 0.784187	 3.516649	-5.225038	 0.466231	 0.424329	-0.000002	-3.783157	-0.089647	-1.888882	 5.195587	 0.085694	 89.782110	 78.203920	 180.000000	 4.934796	 16.264060	 95.598870	-33.086720	-2.152192	 6.826586	 1.869582	 3.424580	-6.154595	 6.112037	 4.509576	-0.364401	 4.968462	 1.518543	-9.347576	 5.168945	 0.703820	 2.021906
